<svg width="31" height="26" xmlns="http://www.w3.org/2000/svg" xmlns:xlink="http://www.w3.org/1999/xlink" xmlns:svgjs="http://svgjs.com/svgjs" viewBox="0 0.514 31 24.971" fill="#6d6e71"><svg xmlns="http://www.w3.org/2000/svg" width="31" height="26" viewBox="1.642 1.623 29.358 23.649"><path paint-order="stroke fill markers" fill-rule="evenodd" d="M27.33 25.271H5.311c-2.026 0-3.67-1.629-3.67-3.638V5.261c0-2.01 1.644-3.638 3.67-3.638h22.02C29.356 1.623 31 3.25 31 5.26v16.372c0 2.01-1.644 3.638-3.67 3.638zM6.23 3.441L16.32 12.14l10.092-8.697H6.229zm22.936 1.82c0-.523-.226-.992-.583-1.324l-12.261 10.42L4.06 3.936c-.357.332-.583.8-.583 1.324v16.372c0 1.005.821 1.82 1.834 1.82h22.02a1.827 1.827 0 0 0 1.834-1.82V5.261z"/></svg></svg>