<svg width="33" height="30" xmlns="http://www.w3.org/2000/svg" xmlns:xlink="http://www.w3.org/1999/xlink" xmlns:svgjs="http://svgjs.com/svgjs" viewBox="0 0.585 33 28.831" fill="#adff63"><svg xmlns="http://www.w3.org/2000/svg" width="33" height="30" viewBox="2.006 2.353 31.995 27.953"><path paint-order="stroke fill markers" fill-rule="evenodd" d="M31.196 5.112c-3.63-3.59-9.432-3.665-13.192-.288-3.76-3.377-9.561-3.302-13.192.288a9.394 9.394 0 0 0 0 13.393L15.865 29.43a3.048 3.048 0 0 0 4.278 0l11.053-10.925a9.394 9.394 0 0 0 0-13.393zm-1.427 11.983L18.716 28.02c-.392.39-1.033.39-1.425 0L6.24 17.095a7.423 7.423 0 0 1 0-10.574c2.844-2.811 7.416-2.91 10.409-.222l1.356 1.218L19.36 6.3c2.993-2.688 7.566-2.59 10.409.222a7.422 7.422 0 0 1 0 10.574zm-18.514-9.75h-.004a4.246 4.246 0 0 0-4.246 4.243.5.5 0 0 0 1 0 3.247 3.247 0 0 1 3.25-3.245.5.5 0 1 0 0-.998z"/></svg></svg>